{
    "asset": {
        "version": "2.0",
        "generator": "Open Asset Import Library (assimp v5.4.0)"
    },
    "extensionsUsed": [
        "KHR_materials_specular",
        "KHR_materials_volume",
        "KHR_materials_ior",
        "FB_ngon_encoding"
    ],
    "accessors": [
        {
            "bufferView": 0,
            "byteOffset": 0,
            "componentType": 5126,
            "count": 162,
            "type": "VEC3",
            "max": [
                -8.300000190734863,
                -8.300000190734863,
                1.0
            ],
            "min": [
                -9.699999809265137,
                -9.699999809265137,
                0.0
            ]
        },
        {
            "bufferView": 1,
            "byteOffset": 0,
            "componentType": 5126,
            "count": 162,
            "type": "VEC3",
            "max": [
                1.0,
                1.0,
                1.0
            ],
            "min": [
                -1.0,
                -1.0,
                -1.0
            ]
        },
        {
            "bufferView": 2,
            "byteOffset": 0,
            "componentType": 5126,
            "count": 162,
            "type": "VEC2",
            "max": [
                0.699999988079071,
                3.199115037918091
            ],
            "min": [
                -1.0,
                -1.1991150379180908
            ]
        },
        {
            "bufferView": 3,
            "byteOffset": 0,
            "componentType": 5125,
            "count": 468,
            "type": "SCALAR",
            "max": [
                161
            ],
            "min": [
                0
            ]
        },
        {
            "bufferView": 4,
            "byteOffset": 0,
            "componentType": 5126,
            "count": 162,
            "type": "VEC3",
            "max": [
                9.699999809265137,
                -8.300000190734863,
                1.0
            ],
            "min": [
                8.300000190734863,
                -9.699999809265137,
                0.0
            ]
        },
        {
            "bufferView": 5,
            "byteOffset": 0,
            "componentType": 5126,
            "count": 162,
            "type": "VEC3",
            "max": [
                1.0,
                1.0,
                1.0
            ],
            "min": [
                -1.0,
                -1.0,
                -1.0
            ]
        },
        {
            "bufferView": 6,
            "byteOffset": 0,
            "componentType": 5126,
            "count": 162,
            "type": "VEC2",
            "max": [
                0.699999988079071,
                3.199115037918091
            ],
            "min": [
                -1.0,
                -1.1991150379180908
            ]
        },
        {
            "bufferView": 7,
            "byteOffset": 0,
            "componentType": 5125,
            "count": 468,
            "type": "SCALAR",
            "max": [
                161
            ],
            "min": [
                0
            ]
        },
        {
            "bufferView": 8,
            "byteOffset": 0,
            "componentType": 5126,
            "count": 162,
            "type": "VEC3",
            "max": [
                -8.300000190734863,
                9.699999809265137,
                1.0
            ],
            "min": [
                -9.699999809265137,
                8.300000190734863,
                0.0
            ]
        },
        {
            "bufferView": 9,
            "byteOffset": 0,
            "componentType": 5126,
            "count": 162,
            "type": "VEC3",
            "max": [
                1.0,
                1.0,
                1.0
            ],
            "min": [
                -1.0,
                -1.0,
                -1.0
            ]
        },
        {
            "bufferView": 10,
            "byteOffset": 0,
            "componentType": 5126,
            "count": 162,
            "type": "VEC2",
            "max": [
                0.699999988079071,
                3.199115037918091
            ],
            "min": [
                -1.0,
                -1.1991150379180908
            ]
        },
        {
            "bufferView": 11,
            "byteOffset": 0,
            "componentType": 5125,
            "count": 468,
            "type": "SCALAR",
            "max": [
                161
            ],
            "min": [
                0
            ]
        },
        {
            "bufferView": 12,
            "byteOffset": 0,
            "componentType": 5126,
            "count": 162,
            "type": "VEC3",
            "max": [
                9.699999809265137,
                9.699999809265137,
                1.0
            ],
            "min": [
                8.300000190734863,
                8.300000190734863,
                0.0
            ]
        },
        {
            "bufferView": 13,
            "byteOffset": 0,
            "componentType": 5126,
            "count": 162,
            "type": "VEC3",
            "max": [
                1.0,
                1.0,
                1.0
            ],
            "min": [
                -1.0,
                -1.0,
                -1.0
            ]
        },
        {
            "bufferView": 14,
            "byteOffset": 0,
            "componentType": 5126,
            "count": 162,
            "type": "VEC2",
            "max": [
                0.699999988079071,
                3.199115037918091
            ],
            "min": [
                -1.0,
                -1.1991150379180908
            ]
        },
        {
            "bufferView": 15,
            "byteOffset": 0,
            "componentType": 5125,
            "count": 468,
            "type": "SCALAR",
            "max": [
                161
            ],
            "min": [
                0
            ]
        },
        {
            "bufferView": 16,
            "byteOffset": 0,
            "componentType": 5126,
            "count": 166,
            "type": "VEC3",
            "max": [
                5.5,
                5.499632835388184,
                5.699999809265137
            ],
            "min": [
                4.501466751098633,
                4.500367164611816,
                5.199999809265137
            ]
        },
        {
            "bufferView": 17,
            "byteOffset": 0,
            "componentType": 5126,
            "count": 166,
            "type": "VEC3",
            "max": [
                1.0,
                0.9992662668228149,
                1.0
            ],
            "min": [
                -0.9970659017562866,
                -0.9992662668228149,
                -1.0
            ]
        },
        {
            "bufferView": 18,
            "byteOffset": 0,
            "componentType": 5126,
            "count": 166,
            "type": "VEC2",
            "max": [
                0.5,
                2.570796012878418
            ],
            "min": [
                -0.5,
                -0.570796012878418
            ]
        },
        {
            "bufferView": 19,
            "byteOffset": 0,
            "componentType": 5125,
            "count": 480,
            "type": "SCALAR",
            "max": [
                165
            ],
            "min": [
                0
            ]
        },
        {
            "bufferView": 20,
            "byteOffset": 0,
            "componentType": 5126,
            "count": 166,
            "type": "VEC3",
            "max": [
                5.5,
                -4.500367164611816,
                5.699999809265137
            ],
            "min": [
                4.501466751098633,
                -5.499632835388184,
                5.199999809265137
            ]
        },
        {
            "bufferView": 21,
            "byteOffset": 0,
            "componentType": 5126,
            "count": 166,
            "type": "VEC3",
            "max": [
                1.0,
                0.9992662668228149,
                1.0
            ],
            "min": [
                -0.9970659017562866,
                -0.9992662668228149,
                -1.0
            ]
        },
        {
            "bufferView": 22,
            "byteOffset": 0,
            "componentType": 5126,
            "count": 166,
            "type": "VEC2",
            "max": [
                0.5,
                2.570796012878418
            ],
            "min": [
                -0.5,
                -0.570796012878418
            ]
        },
        {
            "bufferView": 23,
            "byteOffset": 0,
            "componentType": 5125,
            "count": 480,
            "type": "SCALAR",
            "max": [
                165
            ],
            "min": [
                0
            ]
        },
        {
            "bufferView": 24,
            "byteOffset": 0,
            "componentType": 5126,
            "count": 166,
            "type": "VEC3",
            "max": [
                -4.5,
                5.499632835388184,
                5.699999809265137
            ],
            "min": [
                -5.498533248901367,
                4.500367164611816,
                5.199999809265137
            ]
        },
        {
            "bufferView": 25,
            "byteOffset": 0,
            "componentType": 5126,
            "count": 166,
            "type": "VEC3",
            "max": [
                1.0,
                0.9992662668228149,
                1.0
            ],
            "min": [
                -0.9970659017562866,
                -0.9992662668228149,
                -1.0
            ]
        },
        {
            "bufferView": 26,
            "byteOffset": 0,
            "componentType": 5126,
            "count": 166,
            "type": "VEC2",
            "max": [
                0.5,
                2.570796012878418
            ],
            "min": [
                -0.5,
                -0.570796012878418
            ]
        },
        {
            "bufferView": 27,
            "byteOffset": 0,
            "componentType": 5125,
            "count": 480,
            "type": "SCALAR",
            "max": [
                165
            ],
            "min": [
                0
            ]
        },
        {
            "bufferView": 28,
            "byteOffset": 0,
            "componentType": 5126,
            "count": 166,
            "type": "VEC3",
            "max": [
                -4.5,
                -4.500367164611816,
                5.699999809265137
            ],
            "min": [
                -5.498533248901367,
                -5.499632835388184,
                5.199999809265137
            ]
        },
        {
            "bufferView": 29,
            "byteOffset": 0,
            "componentType": 5126,
            "count": 166,
            "type": "VEC3",
            "max": [
                1.0,
                0.9992662668228149,
                1.0
            ],
            "min": [
                -0.9970659017562866,
                -0.9992662668228149,
                -1.0
            ]
        },
        {
            "bufferView": 30,
            "byteOffset": 0,
            "componentType": 5126,
            "count": 166,
            "type": "VEC2",
            "max": [
                0.5,
                2.570796012878418
            ],
            "min": [
                -0.5,
                -0.570796012878418
            ]
        },
        {
            "bufferView": 31,
            "byteOffset": 0,
            "componentType": 5125,
            "count": 480,
            "type": "SCALAR",
            "max": [
                165
            ],
            "min": [
                0
            ]
        },
        {
            "bufferView": 32,
            "byteOffset": 0,
            "componentType": 5126,
            "count": 66171,
            "type": "VEC3",
            "max": [
                10.260662078857422,
                10.268412590026855,
                6.3589959144592285
            ],
            "min": [
                -10.260662078857422,
                -10.268412590026855,
                0.0021959999576210976
            ]
        },
        {
            "bufferView": 33,
            "byteOffset": 0,
            "componentType": 5126,
            "count": 66171,
            "type": "VEC3",
            "max": [
                1.0,
                1.0,
                1.0
            ],
            "min": [
                -1.0,
                -1.0,
                -1.0
            ]
        },
        {
            "bufferView": 34,
            "byteOffset": 0,
            "componentType": 5126,
            "count": 66171,
            "type": "VEC2",
            "max": [
                11.695464134216309,
                7.0
            ],
            "min": [
                -12.0,
                -10.695464134216309
            ]
        },
        {
            "bufferView": 35,
            "byteOffset": 0,
            "componentType": 5125,
            "count": 338790,
            "type": "SCALAR",
            "max": [
                66170
            ],
            "min": [
                0
            ]
        }
    ],
    "buffers": [
        {
            "byteLength": 3529784,
            "uri": "AlienAir_v5.bin"
        }
    ],
    "bufferViews": [
        {
            "buffer": 0,
            "byteOffset": 0,
            "byteLength": 1944,
            "target": 34962
        },
        {
            "buffer": 0,
            "byteOffset": 1944,
            "byteLength": 1944,
            "target": 34962
        },
        {
            "buffer": 0,
            "byteOffset": 3888,
            "byteLength": 1296,
            "target": 34962
        },
        {
            "buffer": 0,
            "byteOffset": 5184,
            "byteLength": 1872,
            "target": 34963
        },
        {
            "buffer": 0,
            "byteOffset": 7056,
            "byteLength": 1944,
            "target": 34962
        },
        {
            "buffer": 0,
            "byteOffset": 9000,
            "byteLength": 1944,
            "target": 34962
        },
        {
            "buffer": 0,
            "byteOffset": 10944,
            "byteLength": 1296,
            "target": 34962
        },
        {
            "buffer": 0,
            "byteOffset": 12240,
            "byteLength": 1872,
            "target": 34963
        },
        {
            "buffer": 0,
            "byteOffset": 14112,
            "byteLength": 1944,
            "target": 34962
        },
        {
            "buffer": 0,
            "byteOffset": 16056,
            "byteLength": 1944,
            "target": 34962
        },
        {
            "buffer": 0,
            "byteOffset": 18000,
            "byteLength": 1296,
            "target": 34962
        },
        {
            "buffer": 0,
            "byteOffset": 19296,
            "byteLength": 1872,
            "target": 34963
        },
        {
            "buffer": 0,
            "byteOffset": 21168,
            "byteLength": 1944,
            "target": 34962
        },
        {
            "buffer": 0,
            "byteOffset": 23112,
            "byteLength": 1944,
            "target": 34962
        },
        {
            "buffer": 0,
            "byteOffset": 25056,
            "byteLength": 1296,
            "target": 34962
        },
        {
            "buffer": 0,
            "byteOffset": 26352,
            "byteLength": 1872,
            "target": 34963
        },
        {
            "buffer": 0,
            "byteOffset": 28224,
            "byteLength": 1992,
            "target": 34962
        },
        {
            "buffer": 0,
            "byteOffset": 30216,
            "byteLength": 1992,
            "target": 34962
        },
        {
            "buffer": 0,
            "byteOffset": 32208,
            "byteLength": 1328,
            "target": 34962
        },
        {
            "buffer": 0,
            "byteOffset": 33536,
            "byteLength": 1920,
            "target": 34963
        },
        {
            "buffer": 0,
            "byteOffset": 35456,
            "byteLength": 1992,
            "target": 34962
        },
        {
            "buffer": 0,
            "byteOffset": 37448,
            "byteLength": 1992,
            "target": 34962
        },
        {
            "buffer": 0,
            "byteOffset": 39440,
            "byteLength": 1328,
            "target": 34962
        },
        {
            "buffer": 0,
            "byteOffset": 40768,
            "byteLength": 1920,
            "target": 34963
        },
        {
            "buffer": 0,
            "byteOffset": 42688,
            "byteLength": 1992,
            "target": 34962
        },
        {
            "buffer": 0,
            "byteOffset": 44680,
            "byteLength": 1992,
            "target": 34962
        },
        {
            "buffer": 0,
            "byteOffset": 46672,
            "byteLength": 1328,
            "target": 34962
        },
        {
            "buffer": 0,
            "byteOffset": 48000,
            "byteLength": 1920,
            "target": 34963
        },
        {
            "buffer": 0,
            "byteOffset": 49920,
            "byteLength": 1992,
            "target": 34962
        },
        {
            "buffer": 0,
            "byteOffset": 51912,
            "byteLength": 1992,
            "target": 34962
        },
        {
            "buffer": 0,
            "byteOffset": 53904,
            "byteLength": 1328,
            "target": 34962
        },
        {
            "buffer": 0,
            "byteOffset": 55232,
            "byteLength": 1920,
            "target": 34963
        },
        {
            "buffer": 0,
            "byteOffset": 57152,
            "byteLength": 794052,
            "target": 34962
        },
        {
            "buffer": 0,
            "byteOffset": 851204,
            "byteLength": 794052,
            "target": 34962
        },
        {
            "buffer": 0,
            "byteOffset": 1645256,
            "byteLength": 529368,
            "target": 34962
        },
        {
            "buffer": 0,
            "byteOffset": 2174624,
            "byteLength": 1355160,
            "target": 34963
        }
    ],
    "materials": [
        {
            "name": "Stahl_-_satiniert",
            "pbrMetallicRoughness": {
                "baseColorFactor": [
                    0.6000000238418579,
                    0.6000000238418579,
                    0.6000000238418579,
                    1.0
                ],
                "metallicFactor": 0.0
            },
            "extensions": {
                "KHR_materials_specular": {
                    "specularFactor": 1.0,
                    "specularColorFactor": [
                        0.0,
                        0.0,
                        0.0
                    ]
                },
                "KHR_materials_ior": {
                    "ior": 1.0
                }
            }
        }
    ],
    "meshes": [
        {
            "name": "Körper29",
            "primitives": [
                {
                    "mode": 4,
                    "material": 0,
                    "indices": 3,
                    "attributes": {
                        "POSITION": 0,
                        "NORMAL": 1,
                        "TEXCOORD_0": 2
                    }
                }
            ]
        },
        {
            "name": "Körper30",
            "primitives": [
                {
                    "mode": 4,
                    "material": 0,
                    "indices": 7,
                    "attributes": {
                        "POSITION": 4,
                        "NORMAL": 5,
                        "TEXCOORD_0": 6
                    }
                }
            ]
        },
        {
            "name": "Körper31",
            "primitives": [
                {
                    "mode": 4,
                    "material": 0,
                    "indices": 11,
                    "attributes": {
                        "POSITION": 8,
                        "NORMAL": 9,
                        "TEXCOORD_0": 10
                    }
                }
            ]
        },
        {
            "name": "Körper32",
            "primitives": [
                {
                    "mode": 4,
                    "material": 0,
                    "indices": 15,
                    "attributes": {
                        "POSITION": 12,
                        "NORMAL": 13,
                        "TEXCOORD_0": 14
                    }
                }
            ]
        },
        {
            "name": "Körper33",
            "primitives": [
                {
                    "mode": 4,
                    "material": 0,
                    "indices": 19,
                    "attributes": {
                        "POSITION": 16,
                        "NORMAL": 17,
                        "TEXCOORD_0": 18
                    }
                }
            ]
        },
        {
            "name": "Körper34",
            "primitives": [
                {
                    "mode": 4,
                    "material": 0,
                    "indices": 23,
                    "attributes": {
                        "POSITION": 20,
                        "NORMAL": 21,
                        "TEXCOORD_0": 22
                    }
                }
            ]
        },
        {
            "name": "Körper35",
            "primitives": [
                {
                    "mode": 4,
                    "material": 0,
                    "indices": 27,
                    "attributes": {
                        "POSITION": 24,
                        "NORMAL": 25,
                        "TEXCOORD_0": 26
                    }
                }
            ]
        },
        {
            "name": "Körper36",
            "primitives": [
                {
                    "mode": 4,
                    "material": 0,
                    "indices": 31,
                    "attributes": {
                        "POSITION": 28,
                        "NORMAL": 29,
                        "TEXCOORD_0": 30
                    }
                }
            ]
        },
        {
            "name": "Körper41",
            "primitives": [
                {
                    "mode": 4,
                    "material": 0,
                    "indices": 35,
                    "attributes": {
                        "POSITION": 32,
                        "NORMAL": 33,
                        "TEXCOORD_0": 34
                    }
                }
            ]
        }
    ],
    "nodes": [
        {
            "name": "AlienAir_v5.obj",
            "children": [
                1,
                2,
                3,
                4,
                5,
                6,
                7,
                8,
                9
            ]
        },
        {
            "name": "Körper29",
            "mesh": 0
        },
        {
            "name": "Körper30",
            "mesh": 1
        },
        {
            "name": "Körper31",
            "mesh": 2
        },
        {
            "name": "Körper32",
            "mesh": 3
        },
        {
            "name": "Körper33",
            "mesh": 4
        },
        {
            "name": "Körper34",
            "mesh": 5
        },
        {
            "name": "Körper35",
            "mesh": 6
        },
        {
            "name": "Körper36",
            "mesh": 7
        },
        {
            "name": "Körper41",
            "mesh": 8
        }
    ],
    "scenes": [
        {
            "nodes": [
                0
            ]
        }
    ],
    "scene": 0
}